<mxfile host="app.diagrams.net" modified="2022-07-01T15:35:00.133Z" agent="5.0 (Macintosh)" etag="ESI6q0fneXN1GEP3JM9S" version="20.0.4" type="github">
  <diagram id="A4x4So6n8ypUI23LAxUZ" name="Page-1">
    <mxGraphModel dx="946" dy="551" grid="1" gridSize="5" guides="1" tooltips="1" connect="1" arrows="1" fold="1" page="1" pageScale="1" pageWidth="850" pageHeight="1100" math="0" shadow="0">
      <root>
        <mxCell id="0" />
        <mxCell id="1" parent="0" />
        <mxCell id="GXjRIO4qudoPdrXyxK8p-1" value="START" style="rounded=1;whiteSpace=wrap;html=1;" vertex="1" parent="1">
          <mxGeometry x="200" y="60" width="120" height="20" as="geometry" />
        </mxCell>
        <mxCell id="GXjRIO4qudoPdrXyxK8p-2" value="" style="endArrow=classic;html=1;rounded=0;exitX=0.5;exitY=1;exitDx=0;exitDy=0;" edge="1" parent="1" source="GXjRIO4qudoPdrXyxK8p-1">
          <mxGeometry width="50" height="50" relative="1" as="geometry">
            <mxPoint x="400" y="315" as="sourcePoint" />
            <mxPoint x="260" y="120" as="targetPoint" />
          </mxGeometry>
        </mxCell>
        <mxCell id="GXjRIO4qudoPdrXyxK8p-3" value="Is (n) 1?" style="rhombus;whiteSpace=wrap;html=1;" vertex="1" parent="1">
          <mxGeometry x="195" y="120" width="130" height="80" as="geometry" />
        </mxCell>
        <mxCell id="GXjRIO4qudoPdrXyxK8p-4" value="" style="endArrow=classic;html=1;rounded=0;exitX=0.5;exitY=1;exitDx=0;exitDy=0;" edge="1" parent="1">
          <mxGeometry width="50" height="50" relative="1" as="geometry">
            <mxPoint x="259.5" y="200" as="sourcePoint" />
            <mxPoint x="259.5" y="240" as="targetPoint" />
          </mxGeometry>
        </mxCell>
        <mxCell id="GXjRIO4qudoPdrXyxK8p-5" value="Is (n) 2?" style="rhombus;whiteSpace=wrap;html=1;" vertex="1" parent="1">
          <mxGeometry x="194" y="240" width="130" height="80" as="geometry" />
        </mxCell>
        <mxCell id="GXjRIO4qudoPdrXyxK8p-6" value="" style="endArrow=classic;html=1;rounded=0;exitX=0.5;exitY=1;exitDx=0;exitDy=0;" edge="1" parent="1">
          <mxGeometry width="50" height="50" relative="1" as="geometry">
            <mxPoint x="259.5" y="320" as="sourcePoint" />
            <mxPoint x="259.5" y="360" as="targetPoint" />
          </mxGeometry>
        </mxCell>
        <mxCell id="GXjRIO4qudoPdrXyxK8p-7" value="" style="endArrow=classic;html=1;rounded=0;exitX=0.5;exitY=1;exitDx=0;exitDy=0;" edge="1" parent="1">
          <mxGeometry width="50" height="50" relative="1" as="geometry">
            <mxPoint x="325" y="160" as="sourcePoint" />
            <mxPoint x="410" y="160" as="targetPoint" />
          </mxGeometry>
        </mxCell>
        <mxCell id="GXjRIO4qudoPdrXyxK8p-8" value="" style="endArrow=classic;html=1;rounded=0;exitX=0.5;exitY=1;exitDx=0;exitDy=0;" edge="1" parent="1">
          <mxGeometry width="50" height="50" relative="1" as="geometry">
            <mxPoint x="324" y="279.5" as="sourcePoint" />
            <mxPoint x="409" y="279.5" as="targetPoint" />
          </mxGeometry>
        </mxCell>
      </root>
    </mxGraphModel>
  </diagram>
</mxfile>
